<?xml version="1.0" encoding="utf-8"?>
<!-- Generator: Adobe Illustrator 16.0.0, SVG Export Plug-In . SVG Version: 6.00 Build 0)  -->
<!DOCTYPE svg PUBLIC "-//W3C//DTD SVG 1.1//EN" "http://www.w3.org/Graphics/SVG/1.1/DTD/svg11.dtd">
<svg version="1.1" id="레이어_1" xmlns="http://www.w3.org/2000/svg" xmlns:xlink="http://www.w3.org/1999/xlink" x="0px"
	 y="0px" width="42.953px" height="42.043px" viewBox="0 0 42.953 42.043" enable-background="new 0 0 42.953 42.043"
	 xml:space="preserve">
<g>
	<path fill-rule="evenodd" clip-rule="evenodd" fill="#009CCC" d="M40.216,22.212c-0.302,7.228-3.357,12.753-9.545,16.286
		c-7.883,4.503-17.455,2.709-23.363-4.175C0.819,26.762,1.675,14.819,9.163,8.426c1.215-1.038,2.879-0.915,3.839,0.282
		c0.877,1.093,0.815,2.596-0.236,3.579c-1.688,1.577-2.974,3.404-3.758,5.584c-2.736,7.6,2.058,16.003,9.99,17.501
		c7.617,1.438,14.882-3.81,15.747-11.484c0.487-4.327-0.865-8.081-3.972-11.186c-0.479-0.479-0.944-1.066-1.16-1.691
		c-0.378-1.1,0.212-2.354,1.187-2.927c1.014-0.597,2.262-0.466,3.2,0.387c3.122,2.84,5.088,6.34,5.844,10.492
		C40.046,20.075,40.105,21.211,40.216,22.212z"/>
	<path fill-rule="evenodd" clip-rule="evenodd" fill="#009CCC" d="M18.9,10.336c0-2.228-0.017-4.455,0.006-6.681
		c0.013-1.366,0.941-2.383,2.284-2.587c1.234-0.188,2.446,0.544,2.846,1.77c0.125,0.383,0.172,0.808,0.174,1.216
		c0.012,4.228,0.013,8.454,0.004,12.683c-0.004,1.61-0.93,2.729-2.371,2.913c-1.551,0.199-2.913-1.022-2.937-2.694
		C18.879,14.749,18.9,12.543,18.9,10.336z"/>
</g>
</svg>
