<?xml version="1.0" encoding="utf-8"?>
<!-- Generator: Adobe Illustrator 16.0.0, SVG Export Plug-In . SVG Version: 6.00 Build 0)  -->
<!DOCTYPE svg PUBLIC "-//W3C//DTD SVG 1.1//EN" "http://www.w3.org/Graphics/SVG/1.1/DTD/svg11.dtd">
<svg version="1.1" id="레이어_1" xmlns="http://www.w3.org/2000/svg" xmlns:xlink="http://www.w3.org/1999/xlink" x="0px"
	 y="0px" width="27.475px" height="27.494px" viewBox="0 0 27.475 27.494" enable-background="new 0 0 27.475 27.494"
	 xml:space="preserve">
<g>
	<g>
		<circle fill="#E7E7E7" cx="13.729" cy="13.786" r="13.746"/>
	</g>
	<path fill="#FFFFFF" d="M19.682,12.533h-5.207V7.262c0-0.52-0.48-0.941-1-0.941c-0.521,0-1,0.422-1,0.941v5.271h-4.99
		c-0.521,0-0.942,0.479-0.942,1c0,0.52,0.422,1,0.942,1h4.99v4.927c0,0.521,0.479,0.943,1,0.943c0.52,0,1-0.422,1-0.943v-4.927
		h5.207c0.521,0,0.942-0.48,0.942-1C20.624,13.011,20.202,12.533,19.682,12.533z"/>
</g>
</svg>
