<?xml version="1.0" encoding="utf-8"?>
<!-- Generator: Adobe Illustrator 16.0.0, SVG Export Plug-In . SVG Version: 6.00 Build 0)  -->
<!DOCTYPE svg PUBLIC "-//W3C//DTD SVG 1.1//EN" "http://www.w3.org/Graphics/SVG/1.1/DTD/svg11.dtd">
<svg version="1.1" id="레이어_1" xmlns="http://www.w3.org/2000/svg" xmlns:xlink="http://www.w3.org/1999/xlink" x="0px"
	 y="0px" width="46.395px" height="48.993px" viewBox="0 0 46.395 48.993" enable-background="new 0 0 46.395 48.993"
	 xml:space="preserve">
<g>
	
		<circle fill-rule="evenodd" clip-rule="evenodd" fill="none" stroke="#009CCC" stroke-width="4" stroke-miterlimit="10" cx="23.542" cy="24.973" r="20.354"/>
	<g>
		<path fill="#009CCC" d="M15.946,17.392c0-0.126,0.044-0.233,0.13-0.32c0.087-0.088,0.194-0.132,0.321-0.132h2.851
			c0.127,0,0.232,0.044,0.319,0.132c0.088,0.087,0.132,0.194,0.132,0.32v15.726c0,0.126-0.044,0.233-0.132,0.321
			c-0.087,0.087-0.192,0.131-0.319,0.131h-2.851c-0.127,0-0.234-0.044-0.321-0.131c-0.086-0.088-0.13-0.195-0.13-0.321V17.392z"/>
		<path fill="#009CCC" d="M23.451,17.392c0-0.126,0.044-0.233,0.132-0.32c0.087-0.088,0.194-0.132,0.32-0.132h5.726
			c0.775,0,1.491,0.141,2.148,0.416c0.658,0.278,1.22,0.654,1.688,1.13c0.467,0.475,0.832,1.033,1.093,1.675
			s0.392,1.317,0.392,2.029c0,0.745-0.131,1.438-0.392,2.08s-0.626,1.206-1.093,1.698c-0.468,0.491-1.025,0.874-1.675,1.152
			c-0.65,0.275-1.361,0.416-2.139,0.416h-2.493v5.581c0,0.126-0.044,0.233-0.132,0.321c-0.086,0.087-0.192,0.131-0.319,0.131h-2.804
			c-0.126,0-0.233-0.044-0.32-0.131c-0.088-0.088-0.132-0.195-0.132-0.321V17.392z M29.557,24.067c0.506,0,0.921-0.179,1.247-0.536
			c0.324-0.354,0.486-0.803,0.486-1.342c0-0.506-0.162-0.926-0.486-1.259c-0.326-0.333-0.741-0.499-1.247-0.499h-2.399v3.636H29.557
			z"/>
	</g>
</g>
</svg>
