<?xml version="1.0" encoding="utf-8"?>
<!-- Generator: Adobe Illustrator 16.0.0, SVG Export Plug-In . SVG Version: 6.00 Build 0)  -->
<!DOCTYPE svg PUBLIC "-//W3C//DTD SVG 1.1//EN" "http://www.w3.org/Graphics/SVG/1.1/DTD/svg11.dtd">
<svg version="1.1" id="레이어_1" xmlns="http://www.w3.org/2000/svg" xmlns:xlink="http://www.w3.org/1999/xlink" x="0px"
	 y="0px" width="36.787px" height="42.043px" viewBox="0 0 36.787 42.043" enable-background="new 0 0 36.787 42.043"
	 xml:space="preserve">
<g>
	<path fill-rule="evenodd" clip-rule="evenodd" fill="#009CCC" d="M21.697,42.043c-2.261,0-4.329,0-6.557,0c0-0.451,0-0.881,0-1.31
		c0-2.104-0.021-4.209,0.012-6.313c0.012-0.715-0.249-0.936-0.947-0.937c-1.303-0.003-2.651,0.101-3.896-0.197
		c-3.16-0.756-5.019-3.265-5.059-6.565c-0.028-2.423-0.035-4.847,0.011-7.27c0.015-0.832-0.152-1.272-1.096-1.131
		c-0.467,0.071-0.955,0.02-1.433,0.01c-1.595-0.03-2.701-1.03-2.732-2.462c-0.032-1.473,1.069-2.647,2.639-2.71
		c1.433-0.057,2.871-0.062,4.303,0c0.788,0.032,0.961-0.259,0.954-0.987C7.862,9.079,7.877,5.988,7.883,2.895
		c0.004-1.829,0.995-2.903,2.678-2.928c1.372-0.019,2.512,1.155,2.542,2.809c0.056,3.061,0.019,6.122,0.026,9.183
		c0.001,0.374,0.037,0.746,0.059,1.143c3.495,0,6.897,0,10.399,0c0.021-0.369,0.055-0.707,0.056-1.044
		c0.006-3.061-0.026-6.121,0.017-9.182c0.031-2.124,1.712-3.37,3.572-2.732c1.07,0.366,1.718,1.509,1.727,3.134
		c0.013,2.899,0.004,5.802,0.004,8.703c0,0.344,0,0.688,0,1.161c1.7,0,3.313-0.013,4.926,0.004c1.391,0.016,2.292,0.601,2.711,1.711
		c0.642,1.693-0.426,3.363-2.244,3.462c-0.883,0.048-1.769,0.009-2.757,0.009c0,0.73,0.011,1.359-0.001,1.987
		c-0.042,2.517,0.055,5.046-0.175,7.544c-0.286,3.11-2.944,5.452-6.052,5.608c-0.955,0.048-1.912,0.054-2.868,0.025
		c-0.632-0.02-0.825,0.225-0.817,0.844c0.029,2.199,0.012,4.399,0.012,6.6C21.697,41.276,21.697,41.618,21.697,42.043z"/>
</g>
</svg>
