<?xml version="1.0" encoding="utf-8"?>
<!-- Generator: Adobe Illustrator 16.0.0, SVG Export Plug-In . SVG Version: 6.00 Build 0)  -->
<!DOCTYPE svg PUBLIC "-//W3C//DTD SVG 1.1//EN" "http://www.w3.org/Graphics/SVG/1.1/DTD/svg11.dtd">
<svg version="1.1" id="레이어_1" xmlns="http://www.w3.org/2000/svg" xmlns:xlink="http://www.w3.org/1999/xlink" x="0px"
	 y="0px" width="18.834px" height="18.836px" viewBox="0 0 18.834 18.836" enable-background="new 0 0 18.834 18.836"
	 xml:space="preserve">
<g>
	<g>
		<circle fill="#D6D6D6" cx="9.417" cy="9.418" r="9.417"/>
	</g>
	<g>
		<path fill="#FFFFFF" d="M8.424,11.145c-0.075,0-0.141-0.027-0.192-0.079s-0.077-0.116-0.077-0.192v-0.597
			c0-0.294,0.102-0.555,0.305-0.782C8.663,9.267,8.89,9.052,9.136,8.854C9.383,8.654,9.607,8.459,9.812,8.27
			c0.203-0.188,0.306-0.398,0.306-0.625c0-0.219-0.103-0.413-0.306-0.584c-0.204-0.17-0.458-0.256-0.761-0.256
			c-0.247,0-0.453,0.045-0.62,0.136C8.265,7.031,8.123,7.122,8.004,7.217C7.886,7.313,7.781,7.385,7.692,7.43
			c-0.091,0.05-0.179,0.034-0.265-0.041L6.561,6.534C6.504,6.486,6.478,6.426,6.482,6.35s0.031-0.137,0.078-0.185
			c0.209-0.237,0.46-0.446,0.754-0.626c0.246-0.161,0.548-0.306,0.903-0.436c0.355-0.127,0.767-0.189,1.231-0.189
			c0.379,0,0.741,0.061,1.088,0.184c0.346,0.124,0.654,0.297,0.925,0.52c0.27,0.223,0.485,0.486,0.646,0.789
			c0.161,0.304,0.242,0.636,0.242,0.996c0,0.313-0.052,0.581-0.156,0.804c-0.104,0.224-0.237,0.42-0.398,0.591
			s-0.332,0.327-0.513,0.47c-0.18,0.143-0.351,0.29-0.512,0.44c-0.162,0.152-0.294,0.32-0.398,0.506
			c-0.104,0.185-0.156,0.404-0.156,0.66c0,0.076-0.026,0.141-0.078,0.192c-0.053,0.052-0.116,0.079-0.192,0.079H8.424z
			 M7.842,13.818c0-0.181,0.034-0.353,0.106-0.52c0.07-0.165,0.167-0.313,0.292-0.441c0.122-0.127,0.266-0.227,0.426-0.299
			c0.16-0.07,0.332-0.106,0.513-0.106c0.18,0,0.354,0.036,0.519,0.106c0.166,0.072,0.313,0.172,0.441,0.299
			c0.129,0.129,0.228,0.276,0.299,0.441c0.071,0.167,0.106,0.339,0.106,0.52c0,0.182-0.035,0.352-0.106,0.512
			c-0.071,0.162-0.17,0.303-0.299,0.428c-0.129,0.123-0.275,0.221-0.441,0.291c-0.165,0.071-0.339,0.107-0.519,0.107
			c-0.181,0-0.353-0.036-0.513-0.107c-0.16-0.07-0.304-0.168-0.426-0.291c-0.125-0.125-0.222-0.266-0.292-0.428
			C7.876,14.17,7.842,14,7.842,13.818z"/>
	</g>
</g>
</svg>
