<?xml version="1.0" encoding="utf-8"?>
<!-- Generator: Adobe Illustrator 16.0.0, SVG Export Plug-In . SVG Version: 6.00 Build 0)  -->
<!DOCTYPE svg PUBLIC "-//W3C//DTD SVG 1.1//EN" "http://www.w3.org/Graphics/SVG/1.1/DTD/svg11.dtd">
<svg version="1.1" id="레이어_1" xmlns="http://www.w3.org/2000/svg" xmlns:xlink="http://www.w3.org/1999/xlink" x="0px"
	 y="0px" width="17.947px" height="19.959px" viewBox="0 0 17.947 19.959" enable-background="new 0 0 17.947 19.959"
	 xml:space="preserve">
<g>
	<g>
		<path fill-rule="evenodd" clip-rule="evenodd" fill="#A0A0A0" d="M7.667,2.111C7.339,1.896,7.099,1.745,6.866,1.584
			C6.453,1.302,6.334,0.85,6.562,0.448c0.225-0.404,0.699-0.583,1.127-0.334c1.065,0.626,2.114,1.28,3.148,1.958
			c0.414,0.274,0.475,0.811,0.131,1.204c-0.797,0.919-1.622,1.816-2.457,2.702C8.192,6.312,7.667,6.271,7.326,5.958
			C6.996,5.65,6.958,5.22,7.261,4.829c0.232-0.295,0.494-0.564,0.85-0.964C6.899,4.007,5.918,4.363,5.053,4.959
			C2.555,6.681,1.38,9.078,1.85,12.1c0.448,2.889,2.161,4.874,4.937,5.779c4.521,1.474,9.241-1.883,9.405-6.637
			c0.064-1.855-0.55-3.497-1.727-4.935c-0.171-0.211-0.364-0.521-0.334-0.755c0.039-0.274,0.265-0.59,0.502-0.746
			c0.339-0.224,0.704-0.069,0.972,0.229c0.979,1.089,1.672,2.337,2.019,3.761c1.21,4.97-1.754,9.774-6.745,10.941
			C5.63,20.963,0.323,16.963,0.065,11.588c-0.226-4.692,2.693-8.431,7.313-9.375C7.429,2.204,7.478,2.179,7.667,2.111z"/>
	</g>
</g>
</svg>
