<?xml version="1.0" encoding="utf-8"?>
<!-- Generator: Adobe Illustrator 16.0.0, SVG Export Plug-In . SVG Version: 6.00 Build 0)  -->
<!DOCTYPE svg PUBLIC "-//W3C//DTD SVG 1.1//EN" "http://www.w3.org/Graphics/SVG/1.1/DTD/svg11.dtd">
<svg version="1.1" id="레이어_1" xmlns="http://www.w3.org/2000/svg" xmlns:xlink="http://www.w3.org/1999/xlink" x="0px"
	 y="0px" width="124.668px" height="123.048px" viewBox="0 0 124.668 123.048" enable-background="new 0 0 124.668 123.048"
	 xml:space="preserve">
<g>
	<circle fill="#F3F3F4" cx="63.334" cy="61.666" r="61.334"/>
	<g>
		<path fill-rule="evenodd" clip-rule="evenodd" fill="#00D2D6" d="M61.535,39.013c6.377,0,12.752-0.01,19.127,0.015
			c0.547,0.002,1.281,0.049,1.592,0.385c0.414,0.448,0.697,1.209,0.676,1.821c-0.029,0.78-0.704,1.24-1.496,1.365
			c-0.342,0.054-0.696,0.028-1.045,0.028c-12.084,0.001-24.169,0.001-36.254,0.002c-1.539,0-2.209,0.441-2.217,1.456
			c-0.008,1.045,0.727,1.556,2.256,1.556c13.986,0.001,27.975,0,41.963,0.001c2.254,0,2.961,0.699,2.963,2.939
			c0,10.593,0.001,21.187-0.002,31.78c0,2.168-0.674,2.835-2.846,2.835c-4.631,0-9.262,0.012-13.893-0.014
			c-0.607-0.004-0.961,0.185-1.316,0.679c-6.469,8.993-19.367,8.951-25.885-0.046c-0.227-0.314-0.738-0.568-1.131-0.592
			c-1.264-0.074-2.536-0.02-3.805-0.03C38.939,83.183,38.146,82.471,38,81.2c-0.035-0.313-0.021-0.634-0.021-0.95
			c-0.002-12.211-0.002-24.423-0.002-36.635c0.002-2.873,1.739-4.603,4.625-4.603C48.912,39.012,55.225,39.013,61.535,39.013z
			 M70.969,74.571c-0.301-8.229-7.027-12.95-13.363-12.661c-7.025,0.319-12.871,6.289-12.246,13.897
			c0.539,6.571,6.174,12.15,13.535,11.728C65.885,87.134,71.045,81.276,70.969,74.571z M85.689,52.324
			c-0.17-0.032-0.289-0.073-0.408-0.074c-3.801-0.005-7.601-0.048-11.4,0.009c-2.21,0.033-3.932,1.861-3.909,3.973
			c0.022,2.324,1.763,4.054,4.116,4.062c3.451,0.011,6.904,0.002,10.355,0.002c0.401,0,0.804,0,1.246,0
			C85.689,57.569,85.689,54.958,85.689,52.324z"/>
		<path fill-rule="evenodd" clip-rule="evenodd" fill="#00D2D6" d="M59.217,74.592c1.264,1.246,2.406,2.38,3.556,3.505
			c0.479,0.469,0.95,0.948,0.279,1.587c-0.614,0.585-1.077,0.167-1.528-0.293c-1.148-1.169-2.311-2.325-3.521-3.54
			c-1.216,1.229-2.377,2.393-3.525,3.57c-0.463,0.473-0.932,0.828-1.529,0.234c-0.617-0.615-0.19-1.07,0.268-1.516
			c1.155-1.127,2.306-2.259,3.566-3.495c-1.012-1.011-1.963-1.963-2.912-2.915c-0.291-0.291-0.576-0.588-0.873-0.873
			c-0.447-0.432-0.482-0.876-0.029-1.314c0.459-0.442,0.9-0.35,1.326,0.076c1.115,1.122,2.236,2.24,3.357,3.357
			c0.109,0.109,0.237,0.199,0.411,0.346c1.177-1.187,2.339-2.35,3.49-3.522c0.46-0.47,0.927-0.839,1.526-0.233
			c0.609,0.615,0.19,1.071-0.269,1.518C61.652,72.207,60.502,73.337,59.217,74.592z"/>
		<path fill-rule="evenodd" clip-rule="evenodd" fill="#00D2D6" d="M74.369,58.01c-0.967-0.019-1.693-0.814-1.66-1.818
			c0.029-0.958,0.765-1.657,1.727-1.641c0.955,0.017,1.73,0.844,1.686,1.804C76.08,57.261,75.27,58.026,74.369,58.01z"/>
	</g>
</g>
</svg>
