<?xml version="1.0" encoding="utf-8"?>
<!-- Generator: Adobe Illustrator 16.0.0, SVG Export Plug-In . SVG Version: 6.00 Build 0)  -->
<!DOCTYPE svg PUBLIC "-//W3C//DTD SVG 1.1//EN" "http://www.w3.org/Graphics/SVG/1.1/DTD/svg11.dtd">
<svg version="1.1" id="레이어_1" xmlns="http://www.w3.org/2000/svg" xmlns:xlink="http://www.w3.org/1999/xlink" x="0px"
	 y="0px" width="34.105px" height="34.765px" viewBox="0 0 34.105 34.765" enable-background="new 0 0 34.105 34.765"
	 xml:space="preserve">
<g>
	<g>
		<circle fill="#00D2D6" cx="17.069" cy="17.728" r="17.036"/>
	</g>
	<g>
		<path fill="none" d="M21.166,17.46c1.175,0.005,2.35,0.034,3.523,0.034c0.137,0-0.189,0-0.189,0c0-1,0-1.88,0-2.776
			c0-0.012,0.209-0.036,0.168-0.036c-1.293-0.001-2.417-0.026-3.71-0.008c-0.752,0.012-1.269,0.672-1.261,1.389
			C19.705,16.854,20.366,17.458,21.166,17.46z M21.285,15.475c0.324,0.007,0.588,0.288,0.573,0.614
			c-0.015,0.309-0.29,0.569-0.596,0.563c-0.329-0.006-0.577-0.276-0.565-0.618C20.708,15.707,20.958,15.47,21.285,15.475z"/>
		<path fill="#FFFFFF" d="M26.5,13.499c0-0.763-0.467-1.005-1.234-1.005c-4.759,0-9.518,0-14.278,0c-0.521,0-0.771-0.2-0.767-0.554
			c0.002-0.346,0.23-0.508,0.755-0.508c4.111,0,8.224-0.007,12.335-0.007c0.117,0,0.238,0.005,0.355-0.013
			c0.268-0.043,0.499-0.202,0.509-0.466c0.007-0.209-0.089-0.467-0.229-0.621c-0.105-0.114-0.355,0.022-0.542,0.022
			c-2.169-0.01-4.338,0.147-6.508,0.147c-2.147,0-4.295,0-6.442,0c-0.982,0-1.953,0.244-1.953,1.222c0,4.155,0,8.329,0,12.484
			c0,0.107-0.011,0.227,0.001,0.334C8.503,24.542,8.5,24.55,8.5,24.559v0.058c0,0.734,1.012,1.878,1.746,1.878h14.635
			c0.697,0,1.397-0.801,1.458-1.48c0.033-0.126,0.161-0.563,0.161-0.749C26.5,20.661,26.5,17.103,26.5,13.499z M21.096,14.674
			c1.293-0.019,2.279,0.007,3.572,0.008c0.041,0-0.168,0.024-0.168,0.036c0,0.896,0,1.776,0,2.776c0,0,0.326,0,0.189,0
			c-1.174,0-2.349-0.029-3.523-0.034c-0.8-0.002-1.393-0.607-1.4-1.398C19.758,15.346,20.344,14.686,21.096,14.674z"/>
		<path fill="#FFFFFF" d="M21.263,16.651c0.306,0.007,0.581-0.254,0.596-0.563c0.015-0.326-0.249-0.607-0.573-0.614
			c-0.327-0.005-0.577,0.232-0.588,0.559C20.686,16.375,20.934,16.646,21.263,16.651z"/>
	</g>
</g>
</svg>
