<?xml version="1.0" encoding="utf-8"?>
<!-- Generator: Adobe Illustrator 16.0.0, SVG Export Plug-In . SVG Version: 6.00 Build 0)  -->
<!DOCTYPE svg PUBLIC "-//W3C//DTD SVG 1.1//EN" "http://www.w3.org/Graphics/SVG/1.1/DTD/svg11.dtd">
<svg version="1.1" id="레이어_1" xmlns="http://www.w3.org/2000/svg" xmlns:xlink="http://www.w3.org/1999/xlink" x="0px"
	 y="0px" width="18.971px" height="20px" viewBox="0 0 18.971 20" enable-background="new 0 0 18.971 20" xml:space="preserve">
<g>
	<path fill-rule="evenodd" clip-rule="evenodd" fill="#009CCC" d="M14.173,18.632c-1.37-0.033-2.557-0.433-3.671-1.018
		c-2.832-1.482-5.329-3.401-7.363-5.885c-1.12-1.369-1.947-2.895-2.218-4.672C0.667,5.401,0.952,3.849,1.948,2.48
		c0.261-0.359,0.637-0.642,0.984-0.927c0.307-0.25,0.67-0.233,0.997-0.034C4.338,1.771,4.758,2.017,5.116,2.33
		C5.773,2.904,6.424,3.492,7.01,4.134c0.648,0.711,0.674,1.332,0.142,2.142C6.819,6.779,6.433,7.251,6.034,7.707
		C5.849,7.916,5.833,8.068,5.962,8.298c0.916,1.639,2.077,3.055,3.641,4.11c0.606,0.409,1.244,0.778,1.864,1.167
		c0.214,0.133,0.378,0.116,0.559-0.087c0.343-0.386,0.715-0.751,1.074-1.125c0.519-0.544,1.052-0.656,1.654-0.218
		c0.92,0.669,1.825,1.363,2.667,2.127c0.746,0.674,0.899,1.463,0.508,2.143c-0.646,1.129-1.596,1.883-2.9,2.125
		C14.719,18.596,14.401,18.609,14.173,18.632z"/>
</g>
</svg>
