<?xml version="1.0" encoding="utf-8"?>
<!-- Generator: Adobe Illustrator 16.0.0, SVG Export Plug-In . SVG Version: 6.00 Build 0)  -->
<!DOCTYPE svg PUBLIC "-//W3C//DTD SVG 1.1//EN" "http://www.w3.org/Graphics/SVG/1.1/DTD/svg11.dtd">
<svg version="1.1" id="레이어_1" xmlns="http://www.w3.org/2000/svg" xmlns:xlink="http://www.w3.org/1999/xlink" x="0px"
	 y="0px" width="124.668px" height="123.048px" viewBox="0 0 124.668 123.048" enable-background="new 0 0 124.668 123.048"
	 xml:space="preserve">
<g>
	<circle fill="#F3F3F4" cx="62.002" cy="61.714" r="61.334"/>
	<g>
		<g>
			<path fill-rule="evenodd" clip-rule="evenodd" fill="#00D2D6" d="M45.623,59.625c0-8.326-0.002-16.652,0-24.98
				c0.001-3.277,2.076-5.37,5.341-5.371c9.935-0.004,19.87-0.003,29.806,0c3.248,0,5.381,2.088,5.384,5.35
				c0.013,16.762,0.013,33.522-0.001,50.283c-0.002,3.033-2.182,5.133-5.25,5.135c-10.008,0.004-20.014,0.003-30.02,0.002
				c-3.139-0.002-5.252-2.085-5.256-5.223C45.614,76.422,45.623,68.023,45.623,59.625z M81.014,36.061c-10.105,0-20.148,0-30.248,0
				c0,1.118,0,2.17,0,3.271c10.105,0,20.152,0,30.248,0C81.014,38.223,81.014,37.172,81.014,36.061z M50.768,56.229
				c10.105,0,20.15,0,30.249,0c0-1.117,0-2.17,0-3.27c-10.106,0-20.153,0-30.249,0C50.768,54.066,50.768,55.117,50.768,56.229z
				 M50.783,47.785c10.095,0,20.137,0,30.21,0c0-1.119,0-2.163,0-3.201c-10.128,0-20.175,0-30.284,0
				c0,0.936-0.003,1.789,0.004,2.643C50.713,47.396,50.755,47.568,50.783,47.785z M69.238,79.906
				c-0.012-1.846-1.49-3.347-3.318-3.365c-1.872-0.021-3.395,1.512-3.381,3.4c0.016,1.871,1.459,3.338,3.311,3.364
				C67.721,83.332,69.252,81.799,69.238,79.906z M67.504,68.193c-1.104,0-2.146,0-3.225,0c0,1.109,0,2.156,0,3.258
				c1.104,0,2.145,0,3.225,0C67.504,70.331,67.504,69.283,67.504,68.193z"/>
		</g>
		<g>
			<circle fill="#F3F3F4" cx="45.67" cy="81.898" r="13.787"/>
			<path fill="#00D2D6" d="M45.67,97.186c-8.43,0-15.287-6.857-15.287-15.287S37.24,66.611,45.67,66.611s15.287,6.857,15.287,15.287
				S54.1,97.186,45.67,97.186z M45.67,69.611c-6.775,0-12.287,5.512-12.287,12.287s5.512,12.287,12.287,12.287
				s12.287-5.512,12.287-12.287S52.445,69.611,45.67,69.611z"/>
		</g>
		<path fill-rule="evenodd" clip-rule="evenodd" fill="#00D2D6" d="M47.039,81.88c1.265,1.246,2.407,2.38,3.557,3.505
			c0.479,0.469,0.949,0.948,0.279,1.587c-0.614,0.585-1.076,0.167-1.527-0.293c-1.149-1.169-2.313-2.325-3.522-3.54
			c-1.216,1.229-2.378,2.393-3.525,3.57c-0.464,0.473-0.933,0.828-1.53,0.234c-0.616-0.615-0.189-1.07,0.269-1.516
			c1.155-1.127,2.306-2.259,3.566-3.495c-1.011-1.011-1.962-1.963-2.912-2.915c-0.291-0.291-0.577-0.588-0.874-0.874
			c-0.447-0.431-0.482-0.875-0.028-1.313c0.458-0.442,0.9-0.35,1.325,0.076c1.115,1.122,2.237,2.24,3.359,3.357
			c0.109,0.109,0.236,0.199,0.41,0.346c1.177-1.187,2.339-2.35,3.49-3.522c0.461-0.47,0.926-0.839,1.526-0.233
			c0.608,0.615,0.19,1.071-0.269,1.518C49.475,79.495,48.324,80.625,47.039,81.88z"/>
	</g>
</g>
</svg>
