<?xml version="1.0" encoding="utf-8"?>
<!-- Generator: Adobe Illustrator 16.0.0, SVG Export Plug-In . SVG Version: 6.00 Build 0)  -->
<!DOCTYPE svg PUBLIC "-//W3C//DTD SVG 1.1//EN" "http://www.w3.org/Graphics/SVG/1.1/DTD/svg11.dtd">
<svg version="1.1" id="레이어_1" xmlns="http://www.w3.org/2000/svg" xmlns:xlink="http://www.w3.org/1999/xlink" x="0px"
	 y="0px" width="18.971px" height="14.772px" viewBox="0 0 18.971 14.772" enable-background="new 0 0 18.971 14.772"
	 xml:space="preserve">
<g>
	<path fill-rule="evenodd" clip-rule="evenodd" fill="#009CCC" d="M0.475,2.359c1.333,1.113,2.642,2.205,3.949,3.298
		c1.207,1.007,2.41,2.019,3.619,3.022c0.867,0.72,2.034,0.689,2.971-0.078c0.752-0.616,1.494-1.245,2.24-1.868
		c1.649-1.378,3.297-2.757,4.947-4.134c0.091-0.076,0.189-0.145,0.381-0.289c0.135,0.574,0.354,1.091,0.36,1.609
		c0.035,2.64,0.04,5.283,0.005,7.922c-0.023,1.791-1.641,3.389-3.461,3.402c-4.011,0.029-8.021,0.032-12.031-0.001
		c-1.852-0.017-3.424-1.639-3.443-3.493c-0.022-2.568-0.006-5.139-0.004-7.708C0.01,3.457,0.16,2.905,0.475,2.359z"/>
	<path fill-rule="evenodd" clip-rule="evenodd" fill="#009CCC" d="M1.691,1.015c0.497-0.168,0.9-0.338,1.32-0.434
		c0.324-0.074,0.668-0.079,1.004-0.08c3.637-0.005,7.276-0.019,10.914,0.013c0.621,0.005,1.241,0.211,1.857,0.339
		c0.133,0.027,0.251,0.121,0.432,0.214c-0.498,0.419-0.953,0.804-1.409,1.183c-1.927,1.608-3.855,3.211-5.783,4.817
		C9.554,7.461,9.422,7.462,8.942,7.062C6.674,5.173,4.404,3.285,2.135,1.396C2.018,1.298,1.904,1.197,1.691,1.015z"/>
</g>
</svg>
