<?xml version="1.0" encoding="utf-8"?>
<!-- Generator: Adobe Illustrator 16.0.0, SVG Export Plug-In . SVG Version: 6.00 Build 0)  -->
<!DOCTYPE svg PUBLIC "-//W3C//DTD SVG 1.1//EN" "http://www.w3.org/Graphics/SVG/1.1/DTD/svg11.dtd">
<svg version="1.1" id="레이어_1" xmlns="http://www.w3.org/2000/svg" xmlns:xlink="http://www.w3.org/1999/xlink" x="0px"
	 y="0px" width="124.668px" height="123.048px" viewBox="0 0 124.668 123.048" enable-background="new 0 0 124.668 123.048"
	 xml:space="preserve">
<g>
	<circle fill="#F3F3F4" cx="62.002" cy="61.762" r="61.334"/>
	<g>
		<g>
			<path fill="#00D2D6" d="M75.668,41.223c0-5.269-3.479-8.175-8.747-8.175H56.905c-5.269,0-10.237,2.906-10.237,8.175v7.825h6
				v-6.473c0-3.034,3.083-4.527,6.117-4.527h5.769c3.034,0,5.114,1.493,5.114,4.527v6.473h6V41.223z"/>
		</g>
		<g>
			<path fill="#00D2D6" d="M70.409,54.048h-17.48H37.668v22.133c0,8.396,7.627,14.867,16.021,14.867h15.959
				c8.395,0,15.02-6.472,15.02-14.867V54.048H70.409z M63.668,71.5v9.548h-5v-9.419c-1-0.802-2.238-2.486-2.238-4.44
				c0-2.729,2.489-4.94,5.218-4.94c2.728,0,4.745,2.212,4.745,4.94C66.393,69.041,64.668,70.654,63.668,71.5z"/>
		</g>
	</g>
</g>
</svg>
