<?xml version="1.0" encoding="utf-8"?>
<!-- Generator: Adobe Illustrator 16.0.0, SVG Export Plug-In . SVG Version: 6.00 Build 0)  -->
<!DOCTYPE svg PUBLIC "-//W3C//DTD SVG 1.1//EN" "http://www.w3.org/Graphics/SVG/1.1/DTD/svg11.dtd">
<svg version="1.1" id="레이어_1" xmlns="http://www.w3.org/2000/svg" xmlns:xlink="http://www.w3.org/1999/xlink" x="0px"
	 y="0px" width="46.361px" height="46.542px" viewBox="0 0 46.361 46.542" enable-background="new 0 0 46.361 46.542"
	 xml:space="preserve">
<g>
	<path fill="#FFFFFF" d="M28.558,11.79c-2.834-2.347-5.789-4.267-8.969-5.842c-1.781-0.88-3.555-1.774-5.293-2.733
		c-0.666-0.367-1.287-0.866-1.832-1.403c-0.781-0.77-0.596-1.35,0.467-1.656c0.313-0.088,0.65-0.153,0.977-0.153
		c6.359-0.039,12.546,0.803,18.32,3.676c1.008,0.504,1.951,1.146,2.994,1.76c0.609-0.631,1.273-1.268,2.299-1.098
		c1.195,0.202,2.305,0.599,3.162,1.496c1.383,1.438,1.352,3.017,0.043,4.715c1.082,2.14,2.234,4.155,3.143,6.278
		c1.49,3.472,1.961,7.193,2.332,10.916c0.158,1.596,0.174,3.208,0.154,4.815c-0.008,0.685,0.014,1.602-0.807,1.848
		c-0.795,0.239-1.252-0.527-1.594-1.086c-1.013-1.677-2.025-3.362-2.877-5.126c-1.701-3.526-3.644-6.895-6.129-9.93
		c-0.191-0.231-0.39-0.456-0.646-0.751c-0.293,0.312-0.557,0.586-0.813,0.863C25.05,27.57,16.604,36.753,8.191,45.975
		c-0.594,0.647-1.135,0.702-1.805,0.356c-2.736-1.408-4.801-3.498-6.199-6.25c-0.35-0.691-0.203-1.186,0.379-1.738
		c9.027-8.53,18.027-17.089,27.035-25.637C27.899,12.42,28.194,12.141,28.558,11.79z"/>
</g>
</svg>
