<?xml version="1.0" encoding="utf-8"?>
<!-- Generator: Adobe Illustrator 16.0.0, SVG Export Plug-In . SVG Version: 6.00 Build 0)  -->
<!DOCTYPE svg PUBLIC "-//W3C//DTD SVG 1.1//EN" "http://www.w3.org/Graphics/SVG/1.1/DTD/svg11.dtd">
<svg version="1.1" id="레이어_1" xmlns="http://www.w3.org/2000/svg" xmlns:xlink="http://www.w3.org/1999/xlink" x="0px"
	 y="0px" width="91.234px" height="91.247px" viewBox="0 0 91.234 91.247" enable-background="new 0 0 91.234 91.247"
	 xml:space="preserve">
<g>
	<path fill="#f25187" d="M45.615,0C20.421,0,0,20.427,0,45.625c0,25.196,20.421,45.623,45.615,45.623
		c25.197,0,45.619-20.427,45.619-45.623C91.234,20.427,70.812,0,45.615,0z M39.912,25.822c0-0.359-0.043-0.117,0.207-0.363
		c0.248-0.256,0.384,0.166,0.746,0.166h9.494c0.361,0,0.801-0.422,1.053-0.166c0.244,0.246,0.5,0.004,0.5,0.363v7.598L48.46,52.476
		c-0.048,0.273-0.255,1.051-0.507,1.277c-0.25,0.225-0.602,0.871-0.912,0.871h-2.849c-0.321,0-0.603-0.646-0.851-0.871
		c-0.246-0.228-0.23-0.738-0.271-1.014L39.912,33.55V25.822L39.912,25.822z M51.549,68.757c-0.336,0.768-0.813,1.447-1.427,2.033
		c-0.606,0.588-1.311,1.053-2.1,1.393c-0.795,0.342-1.617,0.502-2.479,0.502c-0.856,0-1.676-0.16-2.441-0.502
		c-0.766-0.34-1.448-0.805-2.035-1.393c-0.586-0.586-1.049-1.267-1.391-2.033c-0.34-0.773-0.504-1.588-0.504-2.439
		c0-0.861,0.164-1.686,0.504-2.479c0.342-0.795,0.805-1.494,1.391-2.1c0.587-0.615,1.271-1.089,2.035-1.431
		c0.768-0.345,1.585-0.502,2.441-0.502c0.859,0,1.684,0.157,2.479,0.502c0.789,0.342,1.49,0.813,2.1,1.431
		c0.613,0.604,1.091,1.305,1.427,2.1c0.34,0.793,0.506,1.617,0.506,2.479C52.054,67.169,51.888,67.981,51.549,68.757z"/>
</g>
</svg>
