<?xml version="1.0" encoding="utf-8"?>
<!-- Generator: Adobe Illustrator 16.0.0, SVG Export Plug-In . SVG Version: 6.00 Build 0)  -->
<!DOCTYPE svg PUBLIC "-//W3C//DTD SVG 1.1//EN" "http://www.w3.org/Graphics/SVG/1.1/DTD/svg11.dtd">
<svg version="1.1" id="레이어_1" xmlns="http://www.w3.org/2000/svg" xmlns:xlink="http://www.w3.org/1999/xlink" x="0px"
	 y="0px" width="25.654px" height="25.604px" viewBox="237.173 237.2 25.654 25.604"
	 enable-background="new 237.173 237.2 25.654 25.604" xml:space="preserve">
<g>
	<g>
		<path fill="#999C9E" d="M255.288,248.01c-0.971-0.924-1.944-1.845-2.905-2.778c-0.184-0.179-0.35-0.391-0.473-0.616
			c-0.484-0.88-0.281-1.991,0.46-2.625c0.833-0.71,1.913-0.774,2.752-0.154c0.158,0.118,0.313,0.255,0.455,0.397
			c2.146,2.147,4.296,4.298,6.439,6.449c1.074,1.075,1.081,2.309,0.014,3.379c-2.138,2.142-4.286,4.271-6.418,6.42
			c-1.338,1.352-3.271,0.615-3.717-0.75c-0.29-0.896-0.043-1.662,0.586-2.317c0.904-0.938,1.822-1.864,2.777-2.842
			c-0.141,0-0.271,0-0.401,0c-3.003,0-6.005,0.005-9.009-0.001c-0.959-0.002-1.799-0.648-2.063-1.563
			c-0.275-0.946,0.07-1.921,0.86-2.44c0.467-0.307,0.989-0.379,1.531-0.378c2.859,0.002,5.721,0,8.581,0c0.138,0,0.275,0,0.411,0
			C255.211,248.132,255.248,248.071,255.288,248.01z"/>
		<path fill="#999C9E" d="M241.574,250.021c0,2.256,0,4.511,0,6.766c0,0.154,0,0.309,0.01,0.462
			c0.043,0.756,0.436,1.146,1.199,1.161c0.652,0.015,1.306-0.003,1.959,0.016c1.032,0.03,1.838,0.682,2.088,1.672
			c0.235,0.934-0.185,1.944-1.043,2.438c-0.23,0.132-0.509,0.253-0.766,0.253c-1.126,0-2.269,0.075-3.368-0.104
			c-2.283-0.371-3.954-2.119-4.385-4.389c-0.061-0.313-0.086-0.636-0.088-0.953c-0.003-4.878,0.01-9.758-0.008-14.635
			c-0.008-2.61,1.865-4.922,4.379-5.35c1.1-0.186,2.248-0.183,3.365-0.113c1.229,0.078,2.038,1.104,1.965,2.276
			c-0.076,1.196-0.994,2.048-2.242,2.071c-0.533,0.009-1.066,0.001-1.603,0.001c-1.083,0.003-1.464,0.374-1.464,1.449
			C241.572,245.367,241.574,247.693,241.574,250.021z"/>
	</g>
</g>
</svg>
