<?xml version="1.0" encoding="utf-8"?>
<!-- Generator: Adobe Illustrator 16.0.0, SVG Export Plug-In . SVG Version: 6.00 Build 0)  -->
<!DOCTYPE svg PUBLIC "-//W3C//DTD SVG 1.1//EN" "http://www.w3.org/Graphics/SVG/1.1/DTD/svg11.dtd">
<svg version="1.1" id="레이어_1" xmlns="http://www.w3.org/2000/svg" xmlns:xlink="http://www.w3.org/1999/xlink" x="0px"
	 y="0px" width="39.942px" height="38.885px" viewBox="0 0 39.942 38.885" enable-background="new 0 0 39.942 38.885"
	 xml:space="preserve">
<g>
	<g>
		<path fill="#FFFFFF" d="M26.065,8.271c1.94,1.871,3.845,3.704,5.775,5.562c0.837-0.83,1.748-1.737,2.661-2.649
			c0.974-0.972,1.942-1.952,2.92-2.929c0.671-0.662,1.538-0.739,2.084-0.188c0.621,0.63,0.585,1.401-0.141,2.13
			c-1.793,1.799-3.602,3.592-5.398,5.389c-0.091,0.091-0.164,0.184-0.324,0.363c0.568,0.541,1.133,1.045,1.669,1.582
			c1.067,1.09,1.084,2.297-0.014,3.35c-1.402,1.343-2.717,2.852-4.314,3.916c-3.654,2.437-7.563,2.557-11.534,0.658
			c-0.336-0.158-0.871-0.361-1.087-0.213c-0.545,0.363-1.021,0.877-1.377,1.426c-0.115,0.181,0.167,0.701,0.381,0.979
			c0.346,0.44,0.604,0.881,0.438,1.447c-0.26,0.897-1.354,1.17-2.115,0.504c-0.409-0.356-0.77-0.781-1.127-1.156
			c-0.66,0.832-1.234,1.659-1.914,2.394c-1.414,1.539-3.242,2.252-5.282,2.496c-0.629,0.074-1.258,0.162-1.886,0.258
			c-0.983,0.15-1.702,0.689-2.035,1.613c-0.306,0.852-0.494,1.741-0.732,2.621c-0.257,0.928-1.143,1.324-1.987,0.881
			c-0.554-0.289-0.834-0.793-0.686-1.369c0.327-1.266,0.649-2.543,1.154-3.74c0.648-1.533,1.969-2.344,3.573-2.664
			c0.997-0.2,2.006-0.325,3.009-0.497c2.259-0.386,3.527-1.942,4.497-3.837c0.063-0.117-0.053-0.391-0.168-0.52
			c-0.519-0.558-1.076-1.084-1.605-1.631c-0.624-0.65-0.678-1.375-0.154-1.912c0.543-0.572,1.273-0.533,1.959,0.104
			c0.637,0.596,0.995,0.596,1.628-0.009c1.316-1.25,1.11-1.111,0.463-2.442c-2.082-4.298-1.24-9.478,2.094-12.894
			c0.874-0.896,1.758-1.776,2.647-2.653c1.076-1.054,2.222-1.062,3.293-0.015c0.543,0.529,1.062,1.094,1.628,1.678
			c0.215-0.188,0.384-0.332,0.541-0.49c1.809-1.791,3.611-3.587,5.426-5.373c0.508-0.505,1.088-0.568,1.683-0.223
			c0.536,0.314,0.76,0.826,0.622,1.408c-0.079,0.342-0.325,0.68-0.58,0.938C29.89,4.453,28.01,6.324,26.065,8.271z M19.448,9.931
			c0.12,0.187,0.303,0.592,0.594,0.888c3.001,3.025,6.021,6.036,9.026,9.049c0.107,0.102,0.212,0.209,0.327,0.299
			c0.603,0.463,1.417,0.408,1.903-0.123c0.494-0.543,0.473-1.319-0.07-1.887c-0.439-0.465-0.896-0.904-1.344-1.354
			c-2.671-2.667-5.34-5.332-8.006-8.005c-0.469-0.473-0.996-0.633-1.612-0.377C19.714,8.647,19.487,9.102,19.448,9.931z
			 M23.749,21.973c0.657-0.085,1.053-0.432,1.271-0.95c0.252-0.606,0.077-1.151-0.387-1.616c-1.376-1.369-2.746-2.762-4.134-4.13
			c-0.609-0.602-1.454-0.629-1.985-0.103c-0.585,0.58-0.576,1.392,0.053,2.035c1.397,1.416,2.797,2.828,4.225,4.221
			C23.046,21.676,23.43,21.799,23.749,21.973z"/>
	</g>
</g>
</svg>
