<?xml version="1.0" encoding="utf-8"?>
<!-- Generator: Adobe Illustrator 16.0.0, SVG Export Plug-In . SVG Version: 6.00 Build 0)  -->
<!DOCTYPE svg PUBLIC "-//W3C//DTD SVG 1.1//EN" "http://www.w3.org/Graphics/SVG/1.1/DTD/svg11.dtd">
<svg version="1.1" id="레이어_1" xmlns="http://www.w3.org/2000/svg" xmlns:xlink="http://www.w3.org/1999/xlink" x="0px"
	 y="0px" width="43.803px" height="43.993px" viewBox="0 0 43.803 43.993" enable-background="new 0 0 43.803 43.993"
	 xml:space="preserve">
<g>
	<path fill="#FFFFFF" d="M16.686,39.098c-0.969-0.424-1.863-0.836-2.783-1.191c-0.174-0.063-0.501,0.053-0.658,0.192
		c-0.556,0.502-1.056,1.067-1.598,1.585c-0.994,0.94-2.108,0.969-3.084,0.017c-1.473-1.434-2.92-2.894-4.352-4.373
		c-0.859-0.89-0.832-2.083,0.033-2.993c0.529-0.565,1.105-1.081,1.631-1.646c0.135-0.146,0.25-0.435,0.197-0.601
		c-0.156-0.482-0.412-0.927-0.604-1.393c-0.192-0.472-0.354-0.952-0.543-1.465c-0.855,0-1.697,0.006-2.539-0.007
		c-1.563-0.009-2.373-0.811-2.379-2.361c-0.008-1.942-0.01-3.877,0-5.817c0.008-1.454,0.838-2.276,2.301-2.287
		c0.867-0.004,1.734,0,2.569,0c0.412-0.956,0.823-1.861,1.179-2.783c0.063-0.162-0.029-0.471-0.158-0.611
		c-0.517-0.575-1.086-1.104-1.619-1.662c-0.926-0.976-0.945-2.142-0.012-3.106c1.417-1.455,2.85-2.898,4.305-4.315
		c0.955-0.927,2.055-0.917,3.027-0.012c0.553,0.507,1.08,1.046,1.586,1.596c0.27,0.286,0.484,0.355,0.869,0.174
		c0.844-0.408,1.725-0.744,2.631-1.125c0-0.896-0.01-1.814,0.006-2.736c0.018-1.286,0.848-2.145,2.129-2.16
		c2.049-0.021,4.103-0.021,6.155,0c1.271,0.01,2.105,0.867,2.138,2.16c0.021,0.922,0.002,1.841,0.002,2.728
		c0.953,0.411,1.854,0.83,2.772,1.182c0.172,0.063,0.494-0.063,0.656-0.204c0.538-0.487,1.021-1.036,1.545-1.532
		c1.062-1.01,2.156-1.016,3.195,0c1.414,1.387,2.816,2.793,4.203,4.205c0.977,0.989,0.977,2.167,0.021,3.16
		c-0.519,0.542-1.041,1.076-1.595,1.585c-0.272,0.256-0.317,0.465-0.147,0.813c0.344,0.72,0.658,1.452,0.921,2.205
		c0.132,0.384,0.331,0.461,0.687,0.449c0.725-0.02,1.449-0.009,2.174-0.005c1.371,0.017,2.228,0.843,2.24,2.208
		c0.02,2.014,0.02,4.021,0.002,6.036c-0.01,1.334-0.824,2.166-2.162,2.223c-0.77,0.027-1.547-0.023-2.313,0.027
		c-0.215,0.01-0.496,0.23-0.594,0.427c-0.271,0.535-0.383,1.167-0.703,1.665c-0.502,0.77-0.326,1.281,0.352,1.81
		c0.473,0.367,0.877,0.827,1.278,1.277c0.751,0.848,0.776,2.024-0.011,2.835c-1.473,1.532-2.98,3.04-4.51,4.52
		c-0.861,0.832-1.957,0.816-2.865,0.006c-0.596-0.528-1.119-1.135-1.711-1.674c-0.158-0.146-0.469-0.269-0.658-0.209
		c-0.479,0.146-0.924,0.401-1.391,0.597c-0.443,0.188-0.896,0.355-1.386,0.548c0,0.891,0.011,1.785-0.004,2.675
		c-0.019,1.375-0.838,2.228-2.211,2.242c-2.006,0.027-4.008,0.027-6.012,0c-1.378-0.016-2.186-0.861-2.203-2.242
		C16.678,40.832,16.686,39.935,16.686,39.098z M21.924,31.42c5.168-0.021,9.368-4.257,9.374-9.468
		c0.006-5.106-4.276-9.386-9.396-9.386c-5.137,0-9.398,4.248-9.393,9.364C12.51,27.2,16.719,31.434,21.924,31.42z"/>
</g>
</svg>
