<?xml version="1.0" encoding="utf-8"?>
<!-- Generator: Adobe Illustrator 19.1.0, SVG Export Plug-In . SVG Version: 6.00 Build 0)  -->
<svg version="1.1" id="Layer_1" xmlns="http://www.w3.org/2000/svg" xmlns:xlink="http://www.w3.org/1999/xlink" x="0px" y="0px"
	 viewBox="0 0 22 22" style="enable-background:new 0 0 22 22;" xml:space="preserve">
<style type="text/css">
	.st0{fill:#FFFFFF;stroke:#263A49;stroke-width:2;stroke-miterlimit:10;}
</style>
<g>
	<g>
		<g>
			<path class="st0" d="M20.8,16.1c0-3.8-2.5-3.6-2.5-3.6L17.2,13H16c0,0-2.5-0.1-2.5,3.6c0,0-0.3,2.4,2.5,2.4H17h0.4h0.9
				C21.1,19,20.8,16.1,20.8,16.1z"/>
			<circle class="st0" cx="17.2" cy="10.1" r="3.1"/>
		</g>
		<g>
			<path class="st0" d="M8.5,16.1c0-3.8-2.5-3.6-2.5-3.6L4.9,13H3.8c0,0-2.5-0.1-2.5,3.6c0,0-0.3,2.4,2.5,2.4h0.9h0.4h0.9
				C8.8,19,8.5,16.1,8.5,16.1z"/>
			<circle class="st0" cx="4.9" cy="10.1" r="3.1"/>
		</g>
	</g>
	<g>
		<path class="st0" d="M16.2,15.7c0-5.4-3.6-5.8-3.6-5.8L11,10H9.4c0,0-3.6,0.5-3.6,5.9c0,0-0.4,4.1,3.6,4.1h1.4h0.6h1.4
			C16.6,20,16.2,15.7,16.2,15.7z"/>
		<circle class="st0" cx="11" cy="7" r="4.4"/>
	</g>
</g>
</svg>
