<?xml version="1.0" encoding="utf-8"?>
<!-- Generator: Adobe Illustrator 16.0.0, SVG Export Plug-In . SVG Version: 6.00 Build 0)  -->
<!DOCTYPE svg PUBLIC "-//W3C//DTD SVG 1.1//EN" "http://www.w3.org/Graphics/SVG/1.1/DTD/svg11.dtd">
<svg version="1.1" id="레이어_1" xmlns="http://www.w3.org/2000/svg" xmlns:xlink="http://www.w3.org/1999/xlink" x="0px"
	 y="0px" width="29px" height="23px" viewBox="0 0 29 23" enable-background="new 0 0 29 23" xml:space="preserve">
<g>
	<path fill="#FFFFFF" d="M27,10H2c-1.104,0-2,0.896-2,2s0.896,2,2,2h25c1.104,0,2-0.896,2-2S28.104,10,27,10z"/>
	<path fill="#FFFFFF" d="M27,19H2c-1.104,0-2,0.896-2,2s0.896,2,2,2h25c1.104,0,2-0.896,2-2S28.104,19,27,19z"/>
	<path fill="#FFFFFF" d="M2,4h25c1.104,0,2-0.896,2-2s-0.896-2-2-2H2C0.896,0,0,0.896,0,2S0.896,4,2,4z"/>
</g>
</svg>
