<?xml version="1.0" encoding="utf-8"?>
<!-- Generator: Adobe Illustrator 16.0.0, SVG Export Plug-In . SVG Version: 6.00 Build 0)  -->
<!DOCTYPE svg PUBLIC "-//W3C//DTD SVG 1.1//EN" "http://www.w3.org/Graphics/SVG/1.1/DTD/svg11.dtd">
<svg version="1.1" id="레이어_1" xmlns="http://www.w3.org/2000/svg" xmlns:xlink="http://www.w3.org/1999/xlink" x="0px"
	 y="0px" width="23.988px" height="23.986px" viewBox="0 0 23.988 23.986" enable-background="new 0 0 23.988 23.986"
	 xml:space="preserve">
<g>
	<path fill="#009CCC" d="M14.778,6.078c-1.468-1.211-2.996-2.199-4.642-3.011c-0.92-0.455-1.838-0.914-2.737-1.411
		C7.053,1.467,6.735,1.211,6.451,0.931C6.045,0.537,6.141,0.238,6.694,0.08C6.855,0.034,7.03,0,7.199,0
		c3.288-0.021,6.49,0.412,9.476,1.894c0.522,0.26,1.011,0.589,1.549,0.907c0.319-0.326,0.661-0.653,1.19-0.565
		c0.619,0.104,1.191,0.308,1.635,0.771c0.717,0.739,0.703,1.555,0.024,2.43c0.56,1.102,1.157,2.143,1.626,3.235
		c0.77,1.787,1.016,3.707,1.207,5.627c0.081,0.82,0.09,1.649,0.078,2.479c-0.004,0.354,0.006,0.828-0.416,0.955
		c-0.413,0.125-0.647-0.271-0.822-0.562c-0.525-0.864-1.051-1.731-1.489-2.642c-0.883-1.817-1.886-3.553-3.173-5.12
		c-0.1-0.115-0.199-0.232-0.334-0.386c-0.152,0.16-0.289,0.301-0.422,0.445c-4.364,4.736-8.737,9.469-13.089,14.223
		c-0.307,0.334-0.585,0.363-0.933,0.185c-1.416-0.726-2.484-1.804-3.21-3.222c-0.18-0.356-0.105-0.608,0.195-0.895
		c4.674-4.4,9.327-8.809,13.99-13.215C14.435,6.402,14.591,6.255,14.778,6.078z"/>
</g>
</svg>
