<?xml version="1.0" encoding="utf-8"?>
<!-- Generator: Adobe Illustrator 16.0.0, SVG Export Plug-In . SVG Version: 6.00 Build 0)  -->
<!DOCTYPE svg PUBLIC "-//W3C//DTD SVG 1.1//EN" "http://www.w3.org/Graphics/SVG/1.1/DTD/svg11.dtd">
<svg version="1.1" id="레이어_1" xmlns="http://www.w3.org/2000/svg" xmlns:xlink="http://www.w3.org/1999/xlink" x="0px"
	 y="0px" width="23.988px" height="23.986px" viewBox="0 0 23.988 23.986" enable-background="new 0 0 23.988 23.986"
	 xml:space="preserve">
<g>
	<path fill="#00D2D6" d="M14.776,6.077c-1.467-1.209-2.995-2.197-4.641-3.01c-0.92-0.455-1.838-0.914-2.738-1.412
		C7.052,1.467,6.733,1.211,6.451,0.932C6.045,0.538,6.14,0.239,6.692,0.081C6.853,0.036,7.029,0,7.199,0
		c3.287-0.021,6.489,0.412,9.476,1.895c0.522,0.26,1.011,0.588,1.549,0.906c0.319-0.326,0.661-0.652,1.19-0.564
		c0.619,0.104,1.19,0.307,1.635,0.771c0.717,0.738,0.703,1.553,0.024,2.43c0.56,1.102,1.156,2.141,1.626,3.236
		c0.77,1.787,1.016,3.707,1.207,5.625c0.081,0.822,0.09,1.652,0.077,2.479c-0.004,0.354,0.007,0.826-0.416,0.953
		c-0.412,0.125-0.646-0.271-0.821-0.562c-0.525-0.862-1.051-1.729-1.489-2.641c-0.883-1.818-1.886-3.553-3.173-5.119
		c-0.101-0.117-0.199-0.234-0.334-0.387c-0.152,0.162-0.289,0.303-0.422,0.447c-4.364,4.736-8.737,9.469-13.089,14.221
		c-0.307,0.334-0.585,0.365-0.933,0.186c-1.416-0.727-2.484-1.803-3.21-3.221c-0.18-0.357-0.105-0.611,0.195-0.896
		c4.674-4.398,9.327-8.81,13.99-13.216C14.434,6.403,14.591,6.256,14.776,6.077z"/>
</g>
</svg>
