<?xml version="1.0" encoding="utf-8"?>
<!-- Generator: Adobe Illustrator 16.0.0, SVG Export Plug-In . SVG Version: 6.00 Build 0)  -->
<!DOCTYPE svg PUBLIC "-//W3C//DTD SVG 1.1//EN" "http://www.w3.org/Graphics/SVG/1.1/DTD/svg11.dtd">
<svg version="1.1" id="레이어_1" xmlns="http://www.w3.org/2000/svg" xmlns:xlink="http://www.w3.org/1999/xlink" x="0px"
	 y="0px" width="23.988px" height="23.986px" viewBox="238.007 238.007 23.988 23.986"
	 enable-background="new 238.007 238.007 23.988 23.986" xml:space="preserve">
<g>
	<path fill="#F25187" d="M252.782,244.085c-1.467-1.211-2.996-2.198-4.641-3.011c-0.92-0.455-1.838-0.914-2.738-1.411
		c-0.345-0.188-0.664-0.444-0.946-0.724c-0.406-0.395-0.311-0.693,0.241-0.852c0.161-0.045,0.336-0.079,0.507-0.079
		c3.287-0.021,6.489,0.412,9.476,1.894c0.521,0.26,1.011,0.589,1.549,0.907c0.319-0.326,0.661-0.653,1.19-0.565
		c0.619,0.104,1.19,0.308,1.635,0.771c0.717,0.739,0.703,1.555,0.024,2.43c0.56,1.103,1.156,2.143,1.626,3.236
		c0.77,1.787,1.016,3.707,1.207,5.626c0.08,0.821,0.09,1.651,0.077,2.479c-0.004,0.354,0.007,0.826-0.416,0.953
		c-0.412,0.125-0.646-0.27-0.821-0.561c-0.525-0.864-1.052-1.73-1.489-2.641c-0.883-1.818-1.886-3.553-3.173-5.12
		c-0.101-0.116-0.199-0.233-0.334-0.386c-0.152,0.16-0.289,0.302-0.422,0.445c-4.364,4.736-8.737,9.469-13.089,14.223
		c-0.307,0.334-0.586,0.363-0.933,0.185c-1.416-0.726-2.485-1.804-3.21-3.222c-0.18-0.356-0.105-0.609,0.195-0.896
		c4.674-4.399,9.327-8.809,13.99-13.215C252.442,244.409,252.597,244.264,252.782,244.085z"/>
</g>
</svg>
