<?xml version="1.0" encoding="utf-8"?>
<!-- Generator: Adobe Illustrator 16.0.0, SVG Export Plug-In . SVG Version: 6.00 Build 0)  -->
<!DOCTYPE svg PUBLIC "-//W3C//DTD SVG 1.1//EN" "http://www.w3.org/Graphics/SVG/1.1/DTD/svg11.dtd">
<svg version="1.1" id="레이어_1" xmlns="http://www.w3.org/2000/svg" xmlns:xlink="http://www.w3.org/1999/xlink" x="0px"
	 y="0px" width="43px" height="33.001px" viewBox="0 0 43 33.001" enable-background="new 0 0 43 33.001" xml:space="preserve">
<g>
	<path fill="#FFFFFF" d="M19.125,12.25c0,1.104-0.896,2-2,2H2c-1.104,0-2-0.896-2-2V2.002c0-1.104,0.896-2,2-2h15.125
		c1.104,0,2,0.896,2,2V12.25z"/>
	<path fill="#FFFFFF" d="M43.063,12.25c0,1.104-0.896,2-2,2H25.938c-1.104,0-2-0.896-2-2V2.002c0-1.104,0.896-2,2-2h15.125
		c1.104,0,2,0.896,2,2V12.25z"/>
</g>
<g>
	<path fill="#FFFFFF" d="M19.125,31.001c0,1.104-0.896,2-2,2H2c-1.104,0-2-0.896-2-2V20.753c0-1.104,0.896-2,2-2h15.125
		c1.104,0,2,0.896,2,2V31.001z"/>
	<path fill="#FFFFFF" d="M43.063,31.001c0,1.104-0.896,2-2,2H25.938c-1.104,0-2-0.896-2-2V20.753c0-1.104,0.896-2,2-2h15.125
		c1.104,0,2,0.896,2,2V31.001z"/>
</g>
</svg>
