<?xml version="1.0" encoding="utf-8"?>
<!-- Generator: Adobe Illustrator 16.0.0, SVG Export Plug-In . SVG Version: 6.00 Build 0)  -->
<!DOCTYPE svg PUBLIC "-//W3C//DTD SVG 1.1//EN" "http://www.w3.org/Graphics/SVG/1.1/DTD/svg11.dtd">
<svg version="1.1" id="레이어_1" xmlns="http://www.w3.org/2000/svg" xmlns:xlink="http://www.w3.org/1999/xlink" x="0px"
	 y="0px" width="46.43px" height="46.615px" viewBox="0 0 46.43 46.615" enable-background="new 0 0 46.43 46.615"
	 xml:space="preserve">
<g>
	<path fill="#FFFFFF" d="M23.215,0C10.397,0,0,10.441,0,23.308c0,12.874,10.396,23.308,23.215,23.308
		c12.82,0,23.215-10.434,23.215-23.308C46.43,10.442,36.035,0,23.215,0z M20.215,13.194c0-0.181-0.127-0.454,0.002-0.581
		c0.125-0.128,0.088-0.305,0.27-0.305h4.837c0.183,0,0.453,0.177,0.58,0.305c0.125,0.127,0.312,0.4,0.312,0.581v3.88l-1.813,9.733
		c-0.021,0.146-0.152,0.236-0.277,0.354c-0.129,0.117-0.331,0.146-0.493,0.146h-1.449c-0.162,0-0.305-0.029-0.43-0.146
		c-0.129-0.117-0.01-0.224-0.035-0.369l-1.503-9.65V13.194z M25.926,35.126c-0.172,0.393-0.414,0.736-0.725,1.038
		c-0.312,0.297-0.668,0.536-1.068,0.711c-0.402,0.175-0.824,0.261-1.26,0.261c-0.436,0-0.854-0.086-1.244-0.261
		c-0.391-0.175-0.732-0.414-1.033-0.711c-0.299-0.302-0.535-0.646-0.711-1.038c-0.172-0.397-0.26-0.812-0.26-1.247
		c0-0.438,0.088-0.863,0.26-1.268c0.176-0.401,0.412-0.763,0.711-1.075c0.301-0.308,0.643-0.552,1.033-0.726
		c0.391-0.177,0.809-0.261,1.244-0.261c0.435,0,0.857,0.084,1.26,0.261c0.4,0.174,0.758,0.418,1.068,0.726
		c0.311,0.313,0.553,0.674,0.725,1.075c0.172,0.403,0.258,0.828,0.258,1.268C26.184,34.316,26.098,34.729,25.926,35.126z"/>
</g>
</svg>
