<?xml version="1.0" encoding="utf-8"?>
<!-- Generator: Adobe Illustrator 16.0.0, SVG Export Plug-In . SVG Version: 6.00 Build 0)  -->
<!DOCTYPE svg PUBLIC "-//W3C//DTD SVG 1.1//EN" "http://www.w3.org/Graphics/SVG/1.1/DTD/svg11.dtd">
<svg version="1.1" id="레이어_1" xmlns="http://www.w3.org/2000/svg" xmlns:xlink="http://www.w3.org/1999/xlink" x="0px"
	 y="0px" width="36.592px" height="36.598px" viewBox="231.704 231.701 36.592 36.598"
	 enable-background="new 231.704 231.701 36.592 36.598" xml:space="preserve">
<g>
	<path fill="#F25187" d="M250,231.701c-10.105,0-18.296,8.193-18.296,18.299c0,10.105,8.189,18.299,18.296,18.299
		c10.105,0,18.296-8.193,18.296-18.299C268.296,239.894,260.105,231.701,250,231.701z M248,242.058c0-0.145-0.161-0.037-0.061-0.134
		c0.099-0.104,0.011,0.077,0.156,0.077h3.807c0.146,0,0.061-0.18,0.159-0.077c0.101,0.098-0.063-0.01-0.063,0.134v3.047
		l-1.121,7.644c-0.021,0.108,0.029,0.616-0.072,0.708c-0.1,0.09-0.111,0.544-0.235,0.544h-1.142c-0.13,0-0.241-0.454-0.342-0.544
		c-0.099-0.092,0.052-0.396,0.034-0.503L248,245.158V242.058z M252.38,259.277c-0.134,0.308-0.326,0.58-0.57,0.815
		c-0.245,0.236-0.524,0.423-0.843,0.56c-0.318,0.136-0.649,0.199-0.994,0.199c-0.344,0-0.673-0.063-0.979-0.199
		c-0.308-0.137-0.582-0.322-0.817-0.56c-0.235-0.235-0.421-0.509-0.558-0.815c-0.138-0.311-0.203-0.637-0.203-0.979
		c0-0.346,0.065-0.677,0.203-0.994c0.137-0.318,0.321-0.6,0.558-0.844c0.235-0.247,0.511-0.438,0.817-0.572
		c0.306-0.137,0.635-0.201,0.979-0.201c0.345,0,0.676,0.064,0.994,0.201c0.317,0.137,0.598,0.325,0.843,0.572
		c0.244,0.244,0.438,0.523,0.57,0.844c0.136,0.317,0.203,0.648,0.203,0.994C252.583,258.641,252.516,258.968,252.38,259.277z"/>
</g>
</svg>
